{
  "accessors": [
    {
      "bufferView": 2,
      "componentType": 5126,
      "count": 395,
      "max": [
        -27.89716911315918,
        26.176654815673828,
        239.384765625
      ],
      "min": [
        -157.32965087890625,
        -41.001930236816406,
        196.11279296875
      ],
      "type": "VEC3"
    },
    {
      "bufferView": 2,
      "byteOffset": 4740,
      "componentType": 5126,
      "count": 395,
      "max": [
        0.9950566291809082,
        0.9929690957069397,
        1.0
      ],
      "min": [
        -0.9959619641304016,
        -0.9950612783432007,
        -0.9781476855278015
      ],
      "type": "VEC3"
    },
    {
      "bufferView": 1,
      "componentType": 5126,
      "count": 395,
      "max": [
        0.8551161289215088,
        0.9998858571052551
      ],
      "min": [
        5.962557770544663e-05,
        0.00011426210403442383
      ],
      "type": "VEC2"
    },
    {
      "bufferView": 1,
      "byteOffset": 3160,
      "componentType": 5126,
      "count": 395,
      "max": [
        0.8551161289215088,
        0.9998858571052551
      ],
      "min": [
        5.962557770544663e-05,
        0.00011426210403442383
      ],
      "type": "VEC2"
    },
    {
      "bufferView": 1,
      "byteOffset": 6320,
      "componentType": 5126,
      "count": 395,
      "max": [
        0.8551161289215088,
        0.9998858571052551
      ],
      "min": [
        5.962557770544663e-05,
        0.00011426210403442383
      ],
      "type": "VEC2"
    },
    {
      "bufferView": 0,
      "componentType": 5125,
      "count": 2070,
      "type": "SCALAR"
    },
    {
      "bufferView": 2,
      "byteOffset": 9480,
      "componentType": 5126,
      "count": 395,
      "max": [
        -27.89716911315918,
        26.176654815673828,
        239.384765625
      ],
      "min": [
        -157.32965087890625,
        -41.001930236816406,
        196.11279296875
      ],
      "type": "VEC3"
    },
    {
      "bufferView": 2,
      "byteOffset": 14220,
      "componentType": 5126,
      "count": 395,
      "max": [
        0.9950566291809082,
        0.9929690957069397,
        1.0
      ],
      "min": [
        -0.9959619641304016,
        -0.9950612783432007,
        -0.9781476855278015
      ],
      "type": "VEC3"
    },
    {
      "bufferView": 1,
      "byteOffset": 9480,
      "componentType": 5126,
      "count": 395,
      "max": [
        0.8551161289215088,
        0.9998858571052551
      ],
      "min": [
        5.962557770544663e-05,
        0.00011426210403442383
      ],
      "type": "VEC2"
    },
    {
      "bufferView": 1,
      "byteOffset": 12640,
      "componentType": 5126,
      "count": 395,
      "max": [
        0.8551161289215088,
        0.9998858571052551
      ],
      "min": [
        5.962557770544663e-05,
        0.00011426210403442383
      ],
      "type": "VEC2"
    },
    {
      "bufferView": 1,
      "byteOffset": 15800,
      "componentType": 5126,
      "count": 395,
      "max": [
        0.8551161289215088,
        0.9998858571052551
      ],
      "min": [
        5.962557770544663e-05,
        0.00011426210403442383
      ],
      "type": "VEC2"
    },
    {
      "bufferView": 0,
      "byteOffset": 8280,
      "componentType": 5125,
      "count": 2070,
      "type": "SCALAR"
    },
    {
      "bufferView": 2,
      "byteOffset": 18960,
      "componentType": 5126,
      "count": 6601,
      "max": [
        0.5,
        0.49991461634635925,
        0.18435217440128326
      ],
      "min": [
        -0.49985599517822266,
        -0.49970078468322754,
        -0.18435217440128326
      ],
      "type": "VEC3"
    },
    {
      "bufferView": 2,
      "byteOffset": 98172,
      "componentType": 5126,
      "count": 6601,
      "max": [
        1.0,
        0.9964474439620972,
        1.0
      ],
      "min": [
        -0.9996386766433716,
        -0.9948369264602661,
        -1.0
      ],
      "type": "VEC3"
    },
    {
      "bufferView": 1,
      "byteOffset": 18960,
      "componentType": 5126,
      "count": 6601,
      "max": [
        0.9997699856758118,
        0.5955986976623535
      ],
      "min": [
        9.94797665043734e-05,
        8.350610733032227e-05
      ],
      "type": "VEC2"
    },
    {
      "bufferView": 1,
      "byteOffset": 71768,
      "componentType": 5126,
      "count": 6601,
      "max": [
        0.9997699856758118,
        0.5955986976623535
      ],
      "min": [
        9.94797665043734e-05,
        8.350610733032227e-05
      ],
      "type": "VEC2"
    },
    {
      "bufferView": 1,
      "byteOffset": 124576,
      "componentType": 5126,
      "count": 6601,
      "max": [
        0.9997699856758118,
        0.5955986976623535
      ],
      "min": [
        9.94797665043734e-05,
        8.350610733032227e-05
      ],
      "type": "VEC2"
    },
    {
      "bufferView": 0,
      "byteOffset": 16560,
      "componentType": 5125,
      "count": 38172,
      "type": "SCALAR"
    },
    {
      "bufferView": 2,
      "byteOffset": 177384,
      "componentType": 5126,
      "count": 1622,
      "max": [
        111.85763549804688,
        97.26410675048828,
        97.26410675048828
      ],
      "min": [
        -111.85763549804688,
        -97.26410675048828,
        -97.26410675048828
      ],
      "type": "VEC3"
    },
    {
      "bufferView": 2,
      "byteOffset": 196848,
      "componentType": 5126,
      "count": 1622,
      "max": [
        1.0,
        1.0,
        1.0
      ],
      "min": [
        -1.0,
        -1.0,
        -1.0
      ],
      "type": "VEC3"
    },
    {
      "bufferView": 1,
      "byteOffset": 177384,
      "componentType": 5126,
      "count": 1622,
      "max": [
        0.9997914433479309,
        0.7630975842475891
      ],
      "min": [
        0.0002365410327911377,
        0.00013768672943115234
      ],
      "type": "VEC2"
    },
    {
      "bufferView": 1,
      "byteOffset": 190360,
      "componentType": 5126,
      "count": 1622,
      "max": [
        0.9997914433479309,
        0.7630975842475891
      ],
      "min": [
        0.0002365410327911377,
        0.00013768672943115234
      ],
      "type": "VEC2"
    },
    {
      "bufferView": 1,
      "byteOffset": 203336,
      "componentType": 5126,
      "count": 1622,
      "max": [
        0.9997914433479309,
        0.7630975842475891
      ],
      "min": [
        0.0002365410327911377,
        0.00013768672943115234
      ],
      "type": "VEC2"
    },
    {
      "bufferView": 0,
      "byteOffset": 169248,
      "componentType": 5125,
      "count": 9216,
      "type": "SCALAR"
    },
    {
      "bufferView": 2,
      "byteOffset": 216312,
      "componentType": 5126,
      "count": 246,
      "max": [
        45.187095642089844,
        111.19490814208984,
        45.187095642089844
      ],
      "min": [
        -45.187095642089844,
        -111.19490814208984,
        -45.187095642089844
      ],
      "type": "VEC3"
    },
    {
      "bufferView": 2,
      "byteOffset": 219264,
      "componentType": 5126,
      "count": 246,
      "max": [
        0.979975163936615,
        0.19911989569664001,
        0.979975163936615
      ],
      "min": [
        -0.979975163936615,
        -1.0,
        -0.979975163936615
      ],
      "type": "VEC3"
    },
    {
      "bufferView": 1,
      "byteOffset": 216312,
      "componentType": 5126,
      "count": 246,
      "max": [
        0.6903954148292542,
        0.9999992251396179
      ],
      "min": [
        1.564621925354004e-06,
        6.556510925292969e-07
      ],
      "type": "VEC2"
    },
    {
      "bufferView": 1,
      "byteOffset": 218280,
      "componentType": 5126,
      "count": 246,
      "max": [
        0.6903954148292542,
        0.9999992251396179
      ],
      "min": [
        1.564621925354004e-06,
        6.556510925292969e-07
      ],
      "type": "VEC2"
    },
    {
      "bufferView": 1,
      "byteOffset": 220248,
      "componentType": 5126,
      "count": 246,
      "max": [
        0.6903954148292542,
        0.9999992251396179
      ],
      "min": [
        1.564621925354004e-06,
        6.556510925292969e-07
      ],
      "type": "VEC2"
    },
    {
      "bufferView": 0,
      "byteOffset": 206112,
      "componentType": 5125,
      "count": 480,
      "type": "SCALAR"
    },
    {
      "bufferView": 2,
      "byteOffset": 222216,
      "componentType": 5126,
      "count": 6618,
      "max": [
        21.778337478637695,
        47.07181930541992,
        21.778337478637695
      ],
      "min": [
        -21.778337478637695,
        -47.07181930541992,
        -21.778335571289063
      ],
      "type": "VEC3"
    },
    {
      "bufferView": 2,
      "byteOffset": 301632,
      "componentType": 5126,
      "count": 6618,
      "max": [
        1.0,
        1.0,
        1.0
      ],
      "min": [
        -1.0,
        -1.0,
        -1.0
      ],
      "type": "VEC3"
    },
    {
      "bufferView": 1,
      "byteOffset": 222216,
      "componentType": 5126,
      "count": 6618,
      "max": [
        0.9999555349349976,
        0.6224683523178101
      ],
      "min": [
        0.00019412371329963207,
        0.000216655433177948
      ],
      "type": "VEC2"
    },
    {
      "bufferView": 1,
      "byteOffset": 275160,
      "componentType": 5126,
      "count": 6618,
      "max": [
        0.9999555349349976,
        0.6224683523178101
      ],
      "min": [
        0.00019412371329963207,
        0.000216655433177948
      ],
      "type": "VEC2"
    },
    {
      "bufferView": 1,
      "byteOffset": 328104,
      "componentType": 5126,
      "count": 6618,
      "max": [
        0.9999555349349976,
        0.6224683523178101
      ],
      "min": [
        0.00019412371329963207,
        0.000216655433177948
      ],
      "type": "VEC2"
    },
    {
      "bufferView": 0,
      "byteOffset": 208032,
      "componentType": 5125,
      "count": 38400,
      "type": "SCALAR"
    },
    {
      "bufferView": 2,
      "byteOffset": 381048,
      "componentType": 5126,
      "count": 6618,
      "max": [
        21.778337478637695,
        47.07181930541992,
        21.778337478637695
      ],
      "min": [
        -21.778337478637695,
        -47.07181930541992,
        -21.778335571289063
      ],
      "type": "VEC3"
    },
    {
      "bufferView": 2,
      "byteOffset": 460464,
      "componentType": 5126,
      "count": 6618,
      "max": [
        1.0,
        1.0,
        1.0
      ],
      "min": [
        -1.0,
        -1.0,
        -1.0
      ],
      "type": "VEC3"
    },
    {
      "bufferView": 1,
      "byteOffset": 381048,
      "componentType": 5126,
      "count": 6618,
      "max": [
        0.9999555349349976,
        0.6224683523178101
      ],
      "min": [
        0.00019412371329963207,
        0.000216655433177948
      ],
      "type": "VEC2"
    },
    {
      "bufferView": 1,
      "byteOffset": 433992,
      "componentType": 5126,
      "count": 6618,
      "max": [
        0.9999555349349976,
        0.6224683523178101
      ],
      "min": [
        0.00019412371329963207,
        0.000216655433177948
      ],
      "type": "VEC2"
    },
    {
      "bufferView": 1,
      "byteOffset": 486936,
      "componentType": 5126,
      "count": 6618,
      "max": [
        0.9999555349349976,
        0.6224683523178101
      ],
      "min": [
        0.00019412371329963207,
        0.000216655433177948
      ],
      "type": "VEC2"
    },
    {
      "bufferView": 0,
      "byteOffset": 361632,
      "componentType": 5125,
      "count": 38400,
      "type": "SCALAR"
    }
  ],
  "asset": {
    "extras": {
      "author": "Cucumber_Fan (https://sketchfab.com/Cucumber_Fan)",
      "license": "CC-BY-4.0 (http://creativecommons.org/licenses/by/4.0/)",
      "source": "https://sketchfab.com/3d-models/buttercup-3b3a34c184b142d9bdf46e99044e9a21",
      "title": "Buttercup"
    },
    "generator": "Sketchfab-12.66.0",
    "version": "2.0"
  },
  "bufferViews": [
    {
      "buffer": 0,
      "byteLength": 515232,
      "name": "floatBufferViews",
      "target": 34963
    },
    {
      "buffer": 0,
      "byteLength": 539880,
      "byteOffset": 515232,
      "byteStride": 8,
      "name": "floatBufferViews",
      "target": 34962
    },
    {
      "buffer": 0,
      "byteLength": 539880,
      "byteOffset": 1055112,
      "byteStride": 12,
      "name": "floatBufferViews",
      "target": 34962
    }
  ],
  "buffers": [
    {
      "byteLength": 1594992,
      "uri": "scene.bin"
    }
  ],
  "extensionsRequired": [
    "KHR_materials_pbrSpecularGlossiness"
  ],
  "extensionsUsed": [
    "KHR_materials_pbrSpecularGlossiness"
  ],
  "images": [
    {
      "uri": "textures/material_diffuse.png"
    },
    {
      "uri": "textures/material_specularGlossiness.png"
    },
    {
      "uri": "textures/material_2_diffuse.png"
    },
    {
      "uri": "textures/material_2_specularGlossiness.png"
    },
    {
      "uri": "textures/material_3_diffuse.png"
    },
    {
      "uri": "textures/material_3_specularGlossiness.png"
    },
    {
      "uri": "textures/material_4_diffuse.png"
    },
    {
      "uri": "textures/material_4_specularGlossiness.png"
    },
    {
      "uri": "textures/material_5_diffuse.png"
    },
    {
      "uri": "textures/material_5_specularGlossiness.png"
    }
  ],
  "materials": [
    {
      "doubleSided": true,
      "extensions": {
        "KHR_materials_pbrSpecularGlossiness": {
          "diffuseFactor": [
            1.0,
            1.0,
            1.0,
            1.0
          ],
          "diffuseTexture": {
            "index": 0
          },
          "glossinessFactor": 1.0,
          "specularFactor": [
            1.0,
            1.0,
            1.0
          ],
          "specularGlossinessTexture": {
            "index": 1
          }
        }
      },
      "name": "material"
    },
    {
      "doubleSided": true,
      "extensions": {
        "KHR_materials_pbrSpecularGlossiness": {
          "diffuseFactor": [
            1.0,
            1.0,
            1.0,
            1.0
          ],
          "diffuseTexture": {
            "index": 0
          },
          "glossinessFactor": 1.0,
          "specularFactor": [
            1.0,
            1.0,
            1.0
          ],
          "specularGlossinessTexture": {
            "index": 1
          }
        }
      },
      "name": "material_1"
    },
    {
      "doubleSided": true,
      "extensions": {
        "KHR_materials_pbrSpecularGlossiness": {
          "diffuseFactor": [
            1.0,
            1.0,
            1.0,
            1.0
          ],
          "diffuseTexture": {
            "index": 2
          },
          "glossinessFactor": 1.0,
          "specularFactor": [
            1.0,
            1.0,
            1.0
          ],
          "specularGlossinessTexture": {
            "index": 3
          }
        }
      },
      "name": "material_2"
    },
    {
      "doubleSided": true,
      "extensions": {
        "KHR_materials_pbrSpecularGlossiness": {
          "diffuseFactor": [
            1.0,
            1.0,
            1.0,
            1.0
          ],
          "diffuseTexture": {
            "index": 4
          },
          "glossinessFactor": 1.0,
          "specularFactor": [
            1.0,
            1.0,
            1.0
          ],
          "specularGlossinessTexture": {
            "index": 5
          }
        }
      },
      "name": "material_3"
    },
    {
      "doubleSided": true,
      "extensions": {
        "KHR_materials_pbrSpecularGlossiness": {
          "diffuseFactor": [
            1.0,
            1.0,
            1.0,
            1.0
          ],
          "diffuseTexture": {
            "index": 6
          },
          "glossinessFactor": 1.0,
          "specularFactor": [
            1.0,
            1.0,
            1.0
          ],
          "specularGlossinessTexture": {
            "index": 7
          }
        }
      },
      "name": "material_4"
    },
    {
      "doubleSided": true,
      "extensions": {
        "KHR_materials_pbrSpecularGlossiness": {
          "diffuseFactor": [
            1.0,
            1.0,
            1.0,
            1.0
          ],
          "diffuseTexture": {
            "index": 8
          },
          "glossinessFactor": 1.0,
          "specularFactor": [
            1.0,
            1.0,
            1.0
          ],
          "specularGlossinessTexture": {
            "index": 9
          }
        }
      },
      "name": "material_5"
    }
  ],
  "meshes": [
    {
      "name": "Object_0",
      "primitives": [
        {
          "attributes": {
            "NORMAL": 1,
            "POSITION": 0,
            "TEXCOORD_0": 2,
            "TEXCOORD_1": 3,
            "TEXCOORD_2": 4
          },
          "indices": 5,
          "material": 0,
          "mode": 4
        }
      ]
    },
    {
      "name": "Object_1",
      "primitives": [
        {
          "attributes": {
            "NORMAL": 7,
            "POSITION": 6,
            "TEXCOORD_0": 8,
            "TEXCOORD_1": 9,
            "TEXCOORD_2": 10
          },
          "indices": 11,
          "material": 1,
          "mode": 4
        }
      ]
    },
    {
      "name": "Object_2",
      "primitives": [
        {
          "attributes": {
            "NORMAL": 13,
            "POSITION": 12,
            "TEXCOORD_0": 14,
            "TEXCOORD_1": 15,
            "TEXCOORD_2": 16
          },
          "indices": 17,
          "material": 2,
          "mode": 4
        }
      ]
    },
    {
      "name": "Object_3",
      "primitives": [
        {
          "attributes": {
            "NORMAL": 19,
            "POSITION": 18,
            "TEXCOORD_0": 20,
            "TEXCOORD_1": 21,
            "TEXCOORD_2": 22
          },
          "indices": 23,
          "material": 3,
          "mode": 4
        }
      ]
    },
    {
      "name": "Object_4",
      "primitives": [
        {
          "attributes": {
            "NORMAL": 25,
            "POSITION": 24,
            "TEXCOORD_0": 26,
            "TEXCOORD_1": 27,
            "TEXCOORD_2": 28
          },
          "indices": 29,
          "material": 4,
          "mode": 4
        }
      ]
    },
    {
      "name": "Object_5",
      "primitives": [
        {
          "attributes": {
            "NORMAL": 31,
            "POSITION": 30,
            "TEXCOORD_0": 32,
            "TEXCOORD_1": 33,
            "TEXCOORD_2": 34
          },
          "indices": 35,
          "material": 5,
          "mode": 4
        }
      ]
    },
    {
      "name": "Object_6",
      "primitives": [
        {
          "attributes": {
            "NORMAL": 37,
            "POSITION": 36,
            "TEXCOORD_0": 38,
            "TEXCOORD_1": 39,
            "TEXCOORD_2": 40
          },
          "indices": 41,
          "material": 5,
          "mode": 4
        }
      ]
    }
  ],
  "nodes": [
    {
      "children": [
        1
      ],
      "matrix": [
        1.0,
        0.0,
        0.0,
        0.0,
        0.0,
        2.220446049250313e-16,
        -1.0,
        0.0,
        0.0,
        1.0,
        2.220446049250313e-16,
        0.0,
        0.0,
        0.0,
        0.0,
        1.0
      ],
      "name": "Sketchfab_model"
    },
    {
      "children": [
        2
      ],
      "name": "root"
    },
    {
      "children": [
        3
      ],
      "matrix": [
        1.0,
        0.0,
        0.0,
        0.0,
        0.0,
        2.220446049250313e-16,
        1.0,
        0.0,
        0.0,
        -1.0,
        2.220446049250313e-16,
        0.0,
        0.0,
        0.0,
        0.0,
        1.0
      ],
      "name": "GLTF_SceneRootNode"
    },
    {
      "children": [
        4,
        6,
        8,
        10,
        12,
        14,
        16
      ],
      "name": "root_7"
    },
    {
      "children": [
        5
      ],
      "matrix": [
        -0.0007601810132715586,
        0.0001541168801269689,
        9.265537242717095e-11,
        0.0,
        0.0002309122615500788,
        0.0011389739840136236,
        2.4642278911145385e-11,
        -0.0,
        1.311606296402156e-10,
        -5.1734727574909564e-11,
        0.0011621454032137905,
        0.0,
        0.011908961459994316,
        -0.17183800041675568,
        -0.053267061710357666,
        1.0
      ],
      "name": "_0"
    },
    {
      "mesh": 0,
      "name": "Object_5"
    },
    {
      "children": [
        7
      ],
      "matrix": [
        0.0007601810178416512,
        0.0001541168575850208,
        -5.2059797707850553e-11,
        0.0,
        -0.0002309121815134021,
        0.001138973762672624,
        -3.9491688878387166e-11,
        0.0,
        6.859879032105426e-11,
        5.4202624545280026e-11,
        0.0011621450539678303,
        0.0,
        0.054799772799015045,
        -0.17183800041675568,
        -0.053267061710357666,
        1.0
      ],
      "name": "_1"
    },
    {
      "mesh": 1,
      "name": "Object_7"
    },
    {
      "children": [
        9
      ],
      "matrix": [
        0.29856789112089727,
        1.1477973774297561e-08,
        8.871864530091695e-08,
        0.0,
        4.4415200330427124e-09,
        0.11290057442390147,
        -0.02955370985528735,
        0.0,
        -6.593445986337185e-08,
        0.05618135088405931,
        0.21462303100962404,
        0.0,
        0.0324094220995903,
        -0.09566496312618256,
        0.18167255818843842,
        1.0
      ],
      "name": "_2"
    },
    {
      "mesh": 2,
      "name": "Object_9"
    },
    {
      "children": [
        11
      ],
      "matrix": [
        0.0009999998146667437,
        0.0,
        3.576280581673552e-10,
        0.0,
        0.0,
        0.0010000000474974513,
        0.0,
        0.0,
        -3.576280581673552e-10,
        0.0,
        0.0009999998146667437,
        0.0,
        0.033354323357343674,
        -0.05999492108821869,
        0.1999843865633011,
        1.0
      ],
      "name": "_3"
    },
    {
      "mesh": 3,
      "name": "Object_11"
    },
    {
      "children": [
        13
      ],
      "matrix": [
        0.0009999998146667437,
        0.0,
        3.576280581673552e-10,
        0.0,
        0.0,
        0.0010000000474974513,
        0.0,
        0.0,
        -3.576280581673552e-10,
        0.0,
        0.0009999998146667437,
        0.0,
        0.033357374370098114,
        -0.10829564183950424,
        0.1988867074251175,
        1.0
      ],
      "name": "_4"
    },
    {
      "mesh": 4,
      "name": "Object_13"
    },
    {
      "children": [
        15
      ],
      "matrix": [
        0.0009999998146667437,
        0.0,
        3.576280013239469e-10,
        0.0,
        0.0,
        0.0010000000474974513,
        0.0,
        0.0,
        -3.576280013239469e-10,
        0.0,
        0.0009999998146667437,
        0.0,
        0.012449429370462894,
        -0.24332277476787567,
        0.2000107318162918,
        1.0
      ],
      "name": "_5"
    },
    {
      "mesh": 5,
      "name": "Object_15"
    },
    {
      "children": [
        17
      ],
      "matrix": [
        -0.0009999998146667437,
        0.0,
        -3.576280013239469e-10,
        -0.0,
        0.0,
        0.0010000000474974513,
        0.0,
        0.0,
        -3.576280013239469e-10,
        0.0,
        0.0009999998146667437,
        0.0,
        0.054880645126104355,
        -0.24332277476787567,
        0.2000107318162918,
        1.0
      ],
      "name": "_6"
    },
    {
      "mesh": 6,
      "name": "Object_17"
    }
  ],
  "samplers": [
    {
      "magFilter": 9729,
      "minFilter": 9987,
      "wrapS": 10497,
      "wrapT": 10497
    }
  ],
  "scene": 0,
  "scenes": [
    {
      "name": "Sketchfab_Scene",
      "nodes": [
        0
      ]
    }
  ],
  "textures": [
    {
      "sampler": 0,
      "source": 0
    },
    {
      "sampler": 0,
      "source": 1
    },
    {
      "sampler": 0,
      "source": 2
    },
    {
      "sampler": 0,
      "source": 3
    },
    {
      "sampler": 0,
      "source": 4
    },
    {
      "sampler": 0,
      "source": 5
    },
    {
      "sampler": 0,
      "source": 6
    },
    {
      "sampler": 0,
      "source": 7
    },
    {
      "sampler": 0,
      "source": 8
    },
    {
      "sampler": 0,
      "source": 9
    }
  ]
}
