{
  "accessors": [
    {
      "bufferView": 3,
      "componentType": 5126,
      "count": 1069,
      "max": [
        0.28525474667549133,
        0.9537748694419861,
        0.18572647869586945
      ],
      "min": [
        -0.2961319386959076,
        -0.01087355799973011,
        -0.42743560671806335
      ],
      "type": "VEC3"
    },
    {
      "bufferView": 3,
      "byteOffset": 12828,
      "componentType": 5126,
      "count": 1069,
      "max": [
        1.0,
        1.0,
        0.9999983906745911
      ],
      "min": [
        -1.0,
        -1.0,
        -0.9999983906745911
      ],
      "type": "VEC3"
    },
    {
      "bufferView": 2,
      "componentType": 5126,
      "count": 1069,
      "max": [
        1.0003728866577148,
        0.9951476454734802
      ],
      "min": [
        0.020854279398918152,
        0.5121448040008545
      ],
      "type": "VEC2"
    },
    {
      "bufferView": 1,
      "componentType": 5125,
      "count": 4596,
      "type": "SCALAR"
    },
    {
      "bufferView": 5,
      "componentType": 5126,
      "count": 33,
      "max": [
        1.0677250623703003,
        0.21063202619552612,
        1.0677251815795898,
        0.0,
        1.0677249431610107,
        1.0677249431610107,
        1.0677249431610107,
        0.0,
        0.10347916185855865,
        1.0677250623703003,
        1.0677249431610107,
        0.0,
        0.5154210925102234,
        0.10453739017248154,
        0.3354426622390747,
        1.0
      ],
      "min": [
        -1.0677250623703003,
        -0.21063457429409027,
        -1.0674148797988892,
        0.0,
        -1.0635251998901367,
        -0.10343052446842194,
        -1.0677249431610107,
        0.0,
        -0.5366814732551575,
        -1.0677250623703003,
        -0.10537003725767136,
        0.0,
        -0.7866086363792419,
        -0.45744359493255615,
        -0.33544209599494934,
        1.0
      ],
      "type": "MAT4"
    },
    {
      "bufferView": 0,
      "componentType": 5123,
      "count": 1069,
      "type": "VEC4"
    },
    {
      "bufferView": 4,
      "componentType": 5126,
      "count": 1069,
      "max": [
        1.0,
        0.5,
        0.3333333432674408,
        0.25
      ],
      "min": [
        0.25,
        0.0,
        0.0,
        0.0
      ],
      "type": "VEC4"
    }
  ],
  "asset": {
    "extras": {
      "author": "blooregard q kazoo (https://sketchfab.com/blooregardqkazoo)",
      "license": "CC-BY-4.0 (http://creativecommons.org/licenses/by/4.0/)",
      "source": "https://sketchfab.com/3d-models/blossom-50ff9b5050c6483ca47fa0b8c4100f28",
      "title": "Blossom"
    },
    "generator": "Sketchfab-15.30.0",
    "version": "2.0"
  },
  "bufferViews": [
    {
      "buffer": 0,
      "byteLength": 8552,
      "byteStride": 8,
      "name": "shortBufferViews",
      "target": 34962
    },
    {
      "buffer": 0,
      "byteLength": 18384,
      "byteOffset": 8552,
      "name": "floatBufferViews",
      "target": 34963
    },
    {
      "buffer": 0,
      "byteLength": 8552,
      "byteOffset": 26936,
      "byteStride": 8,
      "name": "floatBufferViews",
      "target": 34962
    },
    {
      "buffer": 0,
      "byteLength": 25656,
      "byteOffset": 35488,
      "byteStride": 12,
      "name": "floatBufferViews",
      "target": 34962
    },
    {
      "buffer": 0,
      "byteLength": 17104,
      "byteOffset": 61144,
      "byteStride": 16,
      "name": "floatBufferViews",
      "target": 34962
    },
    {
      "buffer": 0,
      "byteLength": 2112,
      "byteOffset": 78248,
      "name": "floatBufferViews"
    }
  ],
  "buffers": [
    {
      "byteLength": 80360,
      "uri": "scene.bin"
    }
  ],
  "extensionsUsed": [
    "KHR_materials_unlit"
  ],
  "images": [
    {
      "uri": "textures/Superpoderosas_baseColor.png"
    }
  ],
  "materials": [
    {
      "doubleSided": true,
      "extensions": {
        "KHR_materials_unlit": {}
      },
      "name": "Superpoderosas",
      "pbrMetallicRoughness": {
        "baseColorTexture": {
          "index": 0
        },
        "metallicFactor": 0.0
      }
    }
  ],
  "meshes": [
    {
      "name": "Blossom_Superpoderosas_0",
      "primitives": [
        {
          "attributes": {
            "JOINTS_0": 5,
            "NORMAL": 1,
            "POSITION": 0,
            "TEXCOORD_0": 2,
            "WEIGHTS_0": 6
          },
          "indices": 3,
          "material": 0,
          "mode": 4
        }
      ]
    }
  ],
  "nodes": [
    {
      "children": [
        1
      ],
      "matrix": [
        1.0,
        0.0,
        0.0,
        0.0,
        0.0,
        2.220446049250313e-16,
        -1.0,
        0.0,
        0.0,
        1.0,
        2.220446049250313e-16,
        0.0,
        0.0,
        0.0,
        0.0,
        1.0
      ],
      "name": "Sketchfab_model"
    },
    {
      "children": [
        2
      ],
      "matrix": [
        0.009999999776482582,
        0.0,
        0.0,
        0.0,
        0.0,
        0.0,
        0.009999999776482582,
        0.0,
        0.0,
        -0.009999999776482582,
        0.0,
        0.0,
        0.0,
        0.0,
        0.0,
        1.0
      ],
      "name": "Blossom_Gameplay.fbx"
    },
    {
      "children": [
        3
      ],
      "name": "RootNode"
    },
    {
      "children": [
        4
      ],
      "matrix": [
        1.0,
        0.0,
        0.0,
        0.0,
        0.0,
        0.9999999999999867,
        1.6292067073209113e-07,
        0.0,
        0.0,
        -1.6292067073209113e-07,
        0.9999999999999867,
        0.0,
        0.0,
        0.0,
        0.0,
        1.0
      ],
      "name": "FBX_Blossom_Gameplay"
    },
    {
      "children": [
        5
      ],
      "matrix": [
        1.0,
        0.0,
        0.0,
        0.0,
        -0.0,
        -1.6292067939183141e-07,
        -0.9999999999999868,
        0.0,
        0.0,
        0.9999999999999868,
        -1.6292067939183141e-07,
        0.0,
        -0.1823405772447586,
        0.3305474519729614,
        0.20399527251720428,
        1.0
      ],
      "name": "Master_peg_Gwen"
    },
    {
      "children": [
        6,
        8,
        7
      ],
      "name": "Object_5"
    },
    {
      "children": [
        9
      ],
      "name": "_rootJoint"
    },
    {
      "matrix": [
        1.0677249350967777,
        -1.3969838619232178e-09,
        -9.313444610794738e-10,
        0.0,
        -9.313443927042814e-10,
        5.225966833558853e-08,
        -1.0677249350967941,
        0.0,
        1.3969839180587959e-09,
        1.0677249431610107,
        5.2259668729072094e-08,
        0.0,
        -0.0058069319444060685,
        0.5112891793251038,
        -0.12043694731228002,
        1.0
      ],
      "name": "Object_7"
    },
    {
      "mesh": 0,
      "name": "Object_8",
      "skin": 0
    },
    {
      "children": [
        10
      ],
      "name": "Bip001_01",
      "rotation": [
        -5.578102495216901e-31,
        -5.578076164143443e-31,
        -0.7071057558059692,
        0.7071078419685364
      ],
      "scale": [
        0.9999999403953552,
        0.9999999403953552,
        1.0
      ],
      "translation": [
        -5.506515299202874e-05,
        0.3534647524356842,
        0.16856196522712708
      ]
    },
    {
      "children": [
        11
      ],
      "name": "Bip001 Pelvis_02",
      "rotation": [
        0.5000002384185791,
        0.4999997615814209,
        0.5000001788139343,
        -0.4999997913837433
      ],
      "translation": [
        0.0566105842590332,
        0.17489269375801086,
        -0.33292895555496216
      ]
    },
    {
      "children": [
        12,
        17,
        22
      ],
      "name": "Bip001 Spine_03",
      "rotation": [
        -1.7879683582577854e-06,
        -5.859500168056697e-14,
        8.660928826334166e-16,
        1.0
      ],
      "translation": [
        0.01713637262582779,
        -4.10231041314546e-05,
        -2.2566140955859737e-08
      ]
    },
    {
      "children": [
        13
      ],
      "name": "Bip001 L Thigh_04",
      "rotation": [
        0.0485113151371479,
        0.9987499117851257,
        -0.0005796884070150554,
        -0.012039437890052795
      ],
      "scale": [
        1.0,
        1.0000004768371582,
        1.0
      ],
      "translation": [
        -0.01713648997247219,
        4.082921805093065e-05,
        0.04751421883702278
      ]
    },
    {
      "children": [
        14
      ],
      "name": "Bip001 L Calf_05",
      "rotation": [
        -1.4704365014495124e-07,
        2.996167225433055e-08,
        -0.0969068855047226,
        0.9952934384346008
      ],
      "scale": [
        0.9999999403953552,
        0.9999998807907104,
        0.9999999403953552
      ],
      "translation": [
        0.08005442470312119,
        5.3958501666784286e-08,
        -1.7399474927515257e-07
      ]
    },
    {
      "children": [
        15
      ],
      "name": "Bip001 L Foot_06",
      "rotation": [
        0.0005885877180844545,
        -0.012038993649184704,
        0.04850267618894577,
        0.9987503290176392
      ],
      "scale": [
        1.0000001192092896,
        1.0,
        0.9999998807907104
      ],
      "translation": [
        0.07956159114837646,
        6.6356733441352844e-09,
        -1.3660633157996926e-07
      ]
    },
    {
      "children": [
        16
      ],
      "name": "Bip001 L Toe0_07",
      "rotation": [
        2.9456148809003935e-07,
        -3.209033252460358e-07,
        0.7071068286895752,
        0.7071067094802856
      ],
      "translation": [
        0.027489423751831055,
        0.027782078832387924,
        -1.169141317092226e-08
      ]
    },
    {
      "name": "Bip001 L Toe0_end_026",
      "rotation": [
        -5.448463479413413e-24,
        2.6469779601696886e-23,
        6.617444900424222e-24,
        1.0
      ],
      "translation": [
        1.3877787807814457e-17,
        0.03908342123031616,
        -6.938893903907228e-18
      ]
    },
    {
      "children": [
        18
      ],
      "name": "Bip001 R Thigh_08",
      "rotation": [
        0.048511385917663574,
        0.9987499117851257,
        0.0005824869149364531,
        0.012040290050208569
      ],
      "scale": [
        1.0,
        1.000000238418579,
        1.0
      ],
      "translation": [
        -0.017136448994278908,
        4.1184754081768915e-05,
        -0.047514211386442184
      ]
    },
    {
      "children": [
        19
      ],
      "name": "Bip001 R Calf_09",
      "rotation": [
        -3.443855756124492e-10,
        -2.6092882876582735e-07,
        -0.09690685570240021,
        0.9952934384346008
      ],
      "scale": [
        0.9999999403953552,
        0.9999998807907104,
        0.9999999403953552
      ],
      "translation": [
        0.08005449175834656,
        1.2136297300457954e-08,
        -8.686242836120073e-09
      ]
    },
    {
      "children": [
        20
      ],
      "name": "Bip001 R Foot_010",
      "rotation": [
        -0.000588544993661344,
        0.012040283530950546,
        0.04850258678197861,
        0.9987503290176392
      ],
      "scale": [
        0.9999999403953552,
        0.9999998211860657,
        0.9999998211860657
      ],
      "translation": [
        0.07956165075302124,
        -5.439505912363529e-08,
        -5.3399162425193936e-08
      ]
    },
    {
      "children": [
        21
      ],
      "name": "Bip001 R Toe0_011",
      "rotation": [
        5.072172939435404e-07,
        -5.414616452981136e-07,
        0.7071068286895752,
        0.7071067094802856
      ],
      "translation": [
        0.027489252388477325,
        0.027782147750258446,
        2.6073188053032936e-09
      ]
    },
    {
      "name": "Bip001 R Toe0_end_027",
      "rotation": [
        -3.4165615108928598e-25,
        -1.6543612251060553e-24,
        3.308722450212111e-24,
        1.0
      ],
      "translation": [
        0.0,
        0.039083331823349,
        6.938893903907228e-18
      ]
    },
    {
      "children": [
        23
      ],
      "name": "Bip001 Spine1_012",
      "rotation": [
        3.024445049959468e-08,
        -4.675724868050124e-14,
        3.192672437535293e-08,
        1.0
      ],
      "translation": [
        0.051523976027965546,
        -5.18661763635464e-05,
        -1.3690846678571233e-08
      ]
    },
    {
      "children": [
        24,
        31,
        36
      ],
      "name": "Bip001 Neck_013",
      "rotation": [
        7.449688155247713e-08,
        -3.5232318500383678e-15,
        -2.903696705823522e-16,
        1.0
      ],
      "translation": [
        0.1166824996471405,
        -8.901978617359418e-06,
        -1.574280972249653e-08
      ]
    },
    {
      "children": [
        25,
        29
      ],
      "name": "Bip001 Head_014",
      "rotation": [
        -8.107795679279661e-08,
        3.684805502309494e-15,
        1.3427441380997607e-09,
        1.0
      ],
      "translation": [
        0.011176078580319881,
        -0.011576319113373756,
        1.347597677892054e-08
      ]
    },
    {
      "children": [
        26
      ],
      "name": "Bip001 Xtra01_015",
      "rotation": [
        8.367580051071855e-08,
        -2.7810722258436726e-06,
        0.999019980430603,
        -0.04426196590065956
      ],
      "scale": [
        1.000015139579773,
        0.9999999403953552,
        1.0
      ],
      "translation": [
        0.18194934725761414,
        -0.2017364352941513,
        -2.858539573935559e-07
      ]
    },
    {
      "children": [
        27
      ],
      "name": "Bip001 Xtra0102_016",
      "rotation": [
        -1.1104037689335655e-08,
        -3.1541756584374525e-07,
        0.13381509482860565,
        0.9910063147544861
      ],
      "scale": [
        0.9999999403953552,
        0.9999998807907104,
        0.9999999403953552
      ],
      "translation": [
        0.14010541141033173,
        -9.74150316324085e-05,
        -3.385827085367055e-08
      ]
    },
    {
      "children": [
        28
      ],
      "name": "Bip001 Xtra0103_017",
      "rotation": [
        3.6390788160645116e-09,
        -1.7289373488438287e-07,
        0.08473578095436096,
        0.9964034557342529
      ],
      "scale": [
        1.0,
        0.9999999403953552,
        1.0
      ],
      "translation": [
        0.127010315656662,
        -0.00012124773638788611,
        -4.079186766148268e-09
      ]
    },
    {
      "name": "Bip001 Xtra0103_end_028",
      "rotation": [
        -6.352747104407253e-22,
        2.117582368135751e-22,
        1.3452465257518244e-43,
        1.0
      ],
      "translation": [
        2.7755575615628914e-17,
        0.12701208889484406,
        -8.673617379884035e-19
      ]
    },
    {
      "children": [
        30
      ],
      "name": "Bip001 Xtra02_018",
      "rotation": [
        2.871373361301721e-09,
        5.535122795663483e-07,
        -0.19138476252555847,
        0.981515109539032
      ],
      "translation": [
        0.4165929853916168,
        -0.06689010560512543,
        -1.3470905457779736e-07
      ]
    },
    {
      "name": "Bip001 Xtra02_end_029",
      "rotation": [
        1.0587911840678754e-22,
        -5.293955920339377e-23,
        5.605193857299268e-45,
        1.0
      ],
      "translation": [
        1.1102230246251565e-16,
        0.3467980921268463,
        8.673617379884035e-19
      ]
    },
    {
      "children": [
        32
      ],
      "name": "Bip001 L Clavicle_019",
      "rotation": [
        0.7070538401603699,
        0.00864666048437357,
        0.7070539593696594,
        -0.008648648858070374
      ],
      "translation": [
        -0.016080915927886963,
        0.00010183927224716172,
        0.022372841835021973
      ]
    },
    {
      "children": [
        33
      ],
      "name": "Bip001 L UpperArm_020",
      "rotation": [
        0.05298755690455437,
        0.03237198293209076,
        0.10106521844863892,
        0.9929401874542236
      ],
      "translation": [
        0.019371844828128815,
        8.653342575826173e-08,
        2.5682769688728513e-08
      ]
    },
    {
      "children": [
        34
      ],
      "name": "Bip001 L Forearm_021",
      "rotation": [
        -3.874891962851734e-09,
        3.052945451997857e-09,
        -0.13059687614440918,
        0.9914356470108032
      ],
      "scale": [
        1.0000001192092896,
        1.0,
        1.0
      ],
      "translation": [
        0.13272427022457123,
        5.0960807129740715e-08,
        7.846392691135406e-08
      ]
    },
    {
      "children": [
        35
      ],
      "name": "Bip001 L Hand_022",
      "rotation": [
        -0.7068251967430115,
        -3.6205538123113e-08,
        1.0532518501804589e-07,
        0.7073882222175598
      ],
      "scale": [
        1.0,
        0.9999999403953552,
        1.0
      ],
      "translation": [
        0.13918471336364746,
        5.995389074087143e-08,
        -7.82310962677002e-08
      ]
    },
    {
      "name": "Bip001 L Hand_end_030",
      "rotation": [
        1.3877787807814457e-17,
        -6.938893903907228e-18,
        8.673617379884035e-19,
        1.0
      ],
      "translation": [
        0.0,
        0.13918468356132507,
        0.0
      ]
    },
    {
      "children": [
        37
      ],
      "name": "Bip001 R Clavicle_023",
      "rotation": [
        -0.7070512771606445,
        0.008849460631608963,
        0.7070515155792236,
        0.008851354010403156
      ],
      "translation": [
        -0.016080886125564575,
        0.000101928882941138,
        -0.02237282693386078
      ]
    },
    {
      "children": [
        38
      ],
      "name": "Bip001 R UpperArm_024",
      "rotation": [
        -0.052990421652793884,
        -0.032371655106544495,
        0.10106547921895981,
        0.9929400086402893
      ],
      "scale": [
        1.0,
        0.9999999403953552,
        1.0
      ],
      "translation": [
        0.019371753558516502,
        1.3960578471028384e-08,
        4.655336027781232e-08
      ]
    },
    {
      "children": [
        39
      ],
      "name": "Bip001 R Forearm_025",
      "rotation": [
        -5.753627352333979e-09,
        -2.1605456979045812e-08,
        -0.1305968314409256,
        0.9914355874061584
      ],
      "scale": [
        0.9999999403953552,
        0.9999999403953552,
        1.0
      ],
      "translation": [
        0.13272430002689362,
        -5.579204298555851e-08,
        4.9622030928730965e-08
      ]
    },
    {
      "children": [
        40
      ],
      "name": "Bip001 R Hand_00",
      "rotation": [
        0.7068251967430115,
        6.270141739150858e-08,
        6.632197369071946e-08,
        0.7073882222175598
      ],
      "scale": [
        0.9999999403953552,
        0.9999998807907104,
        0.9999998807907104
      ],
      "translation": [
        0.1391846090555191,
        4.062894731760025e-08,
        -5.587935447692871e-08
      ]
    },
    {
      "name": "Bip001 R Hand_end_031",
      "rotation": [
        6.938893903907228e-18,
        1.0408340855860843e-17,
        -1.3010426069826053e-18,
        1.0
      ],
      "translation": [
        0.0,
        0.1391846090555191,
        0.0
      ]
    }
  ],
  "samplers": [
    {
      "magFilter": 9729,
      "minFilter": 9987,
      "wrapS": 10497,
      "wrapT": 10497
    }
  ],
  "scene": 0,
  "scenes": [
    {
      "name": "Sketchfab_Scene",
      "nodes": [
        0
      ]
    }
  ],
  "skins": [
    {
      "inverseBindMatrices": 4,
      "joints": [
        6,
        9,
        10,
        11,
        12,
        13,
        14,
        15,
        16,
        17,
        18,
        19,
        20,
        21,
        22,
        23,
        24,
        25,
        26,
        27,
        28,
        29,
        30,
        31,
        32,
        33,
        34,
        35,
        36,
        37,
        38,
        39,
        40
      ],
      "skeleton": 6
    }
  ],
  "textures": [
    {
      "sampler": 0,
      "source": 0
    }
  ]
}
